<svg width="26" height="26" viewBox="0 0 26 26" fill="none" xmlns="http://www.w3.org/2000/svg">
<path fill-rule="evenodd" clip-rule="evenodd" d="M8.8792 6.50217C7.56505 6.50217 6.49973 7.56749 6.49973 8.88164V21.7656C6.49973 23.0798 7.56505 24.1451 8.8792 24.1451H21.7632C23.0773 24.1451 24.1426 23.0798 24.1426 21.7656V8.88164C24.1426 7.56749 23.0773 6.50217 21.7632 6.50217H8.8792ZM4.64258 8.88164C4.64258 6.54182 6.53938 4.64502 8.8792 4.64502H21.7632C24.103 4.64502 25.9998 6.54182 25.9998 8.88164V21.7656C25.9998 24.1054 24.103 26.0022 21.7632 26.0022H8.8792C6.53938 26.0022 4.64258 24.1054 4.64258 21.7656V8.88164Z" fill="#337AB7"/>
<path fill-rule="evenodd" clip-rule="evenodd" d="M4.64013 4.04036e-06L4.64287 0H17.1786L17.1813 3.76362e-06C18.2878 0.00315186 19.3482 0.444126 20.1306 1.22659C20.9131 2.00904 21.3541 3.06938 21.3572 4.17594C21.3572 4.18327 21.3572 4.1906 21.357 4.19792L21.328 5.59079C21.3173 6.10351 20.893 6.5105 20.3803 6.49982C19.8675 6.48914 19.4606 6.06483 19.4712 5.5521L19.5 4.17118C19.4956 3.55896 19.2505 2.97289 18.8174 2.53979C18.3822 2.1046 17.7926 1.85922 17.1772 1.85715H4.64435C3.90593 1.85967 3.19845 2.15411 2.67628 2.67628C2.15411 3.19845 1.85967 3.90593 1.85715 4.64435V17.1772C1.85922 17.7926 2.1046 18.3822 2.53979 18.8174C2.97499 19.2526 3.56465 19.498 4.18008 19.5001H5.57144C6.08428 19.5001 6.50002 19.9158 6.50002 20.4286C6.50002 20.9415 6.08428 21.3572 5.57144 21.3572H4.17858L4.17594 21.3572C3.06938 21.3541 2.00904 20.9131 1.22659 20.1306C0.444126 19.3482 0.00315186 18.2878 3.76362e-06 17.1813L0 17.1786V4.64287L4.04036e-06 4.64013C0.00363804 3.41061 0.493674 2.23248 1.36308 1.36308C2.23248 0.493674 3.41061 0.00363804 4.64013 4.04036e-06ZM15.3215 9.75003C15.8343 9.75003 16.25 10.1658 16.25 10.6786V14.3929H19.9643C20.4772 14.3929 20.8929 14.8086 20.8929 15.3215C20.8929 15.8343 20.4772 16.25 19.9643 16.25H16.25V19.9643C16.25 20.4772 15.8343 20.8929 15.3215 20.8929C14.8086 20.8929 14.3929 20.4772 14.3929 19.9643V16.25H10.6786C10.1658 16.25 9.75003 15.8343 9.75003 15.3215C9.75003 14.8086 10.1658 14.3929 10.6786 14.3929H14.3929V10.6786C14.3929 10.1658 14.8086 9.75003 15.3215 9.75003Z" fill="#337AB7"/>
</svg>
